RobotoDelta-wghtmin-opszmax.ufo
<glyph name="dollar" format="2">
  <advance width="947"/>
  <unicode hex="0024"/>
  <outline>
    <contour>
      <point x="50" y="411" type="line" smooth="yes"/>
      <point x="50" y="217"/>
      <point x="287" y="0"/>
      <point x="483" y="0" type="qcurve" smooth="yes"/>
      <point x="679" y="0"/>
      <point x="907" y="206"/>
      <point x="907" y="374" type="qcurve" smooth="yes"/>
      <point x="907" y="533"/>
      <point x="740" y="717"/>
      <point x="527" y="783" type="qcurve" smooth="yes"/>
      <point x="311" y="850"/>
      <point x="166" y="990"/>
      <point x="166" y="1096" type="qcurve" smooth="yes"/>
      <point x="166" y="1225"/>
      <point x="315" y="1371"/>
      <point x="473" y="1371" type="qcurve" smooth="yes"/>
      <point x="630" y="1371"/>
      <point x="790" y="1194"/>
      <point x="790" y="1051" type="qcurve" smooth="yes"/>
      <point x="790" y="1039" type="line"/>
      <point x="878" y="1039" type="line"/>
      <point x="878" y="1051" type="line" smooth="yes"/>
      <point x="878" y="1224"/>
      <point x="658" y="1456"/>
      <point x="473" y="1456" type="qcurve" smooth="yes"/>
      <point x="285" y="1456"/>
      <point x="79" y="1254"/>
      <point x="79" y="1096" type="qcurve" smooth="yes"/>
      <point x="79" y="944"/>
      <point x="259" y="767"/>
      <point x="474" y="700" type="qcurve" smooth="yes"/>
      <point x="691" y="633"/>
      <point x="820" y="488"/>
      <point x="820" y="374" type="qcurve" smooth="yes"/>
      <point x="820" y="245"/>
      <point x="645" y="85"/>
      <point x="483" y="85" type="qcurve" smooth="yes"/>
      <point x="319" y="85"/>
      <point x="137" y="249"/>
      <point x="137" y="411" type="qcurve" smooth="yes"/>
      <point x="137" y="423" type="line"/>
      <point x="50" y="423" type="line"/>
    </contour>
    <contour>
      <point x="441" y="-150" type="line"/>
      <point x="517" y="-150" type="line"/>
      <point x="517" y="90" type="line"/>
      <point x="515" y="100" type="line"/>
      <point x="515" y="728" type="line"/>
      <point x="441" y="728" type="line"/>
    </contour>
    <contour>
      <point x="444" y="728" type="line"/>
      <point x="517" y="728" type="line"/>
      <point x="517" y="1606" type="line"/>
      <point x="441" y="1606" type="line"/>
      <point x="441" y="1366" type="line"/>
      <point x="444" y="1356" type="line"/>
    </contour>
  </outline>
</glyph>
<glyph name="quotesingle" format="2">
  <advance width="271"/>
  <unicode hex="0027"/>
  <outline>
    <contour>
      <point x="94" y="1099" type="line"/>
      <point x="177" y="1099" type="line"/>
      <point x="191" y="1357" type="line"/>
      <point x="191" y="1456" type="line"/>
      <point x="80" y="1456" type="line"/>
      <point x="80" y="1357" type="line"/>
    </contour>
  </outline>
</glyph>
<glyph name="asterisk" format="2">
  <advance width="1021"/>
  <unicode hex="002A"/>
  <outline>
    <contour>
      <point x="38" y="1097" type="line"/>
      <point x="462" y="976" type="line"/>
      <point x="191" y="630" type="line"/>
      <point x="261" y="574" type="line"/>
      <point x="510" y="939" type="line"/>
      <point x="760" y="574" type="line"/>
      <point x="829" y="630" type="line"/>
      <point x="559" y="976" type="line"/>
      <point x="983" y="1097" type="line"/>
      <point x="956" y="1187" type="line"/>
      <point x="540" y="1037" type="line"/>
      <point x="554" y="1476" type="line"/>
      <point x="467" y="1476" type="line"/>
      <point x="481" y="1037" type="line"/>
      <point x="64" y="1187" type="line"/>
    </contour>
  </outline>
</glyph>
<glyph name="plus" format="2">
  <advance width="1130"/>
  <unicode hex="002B"/>
  <outline>
    <contour>
      <point x="95" y="631" type="line"/>
      <point x="1035" y="631" type="line"/>
      <point x="1035" y="717" type="line"/>
      <point x="95" y="717" type="line"/>
    </contour>
    <contour>
      <point x="522" y="183" type="line"/>
      <point x="608" y="183" type="line"/>
      <point x="608" y="1165" type="line"/>
      <point x="522" y="1165" type="line"/>
    </contour>
  </outline>
</glyph>
<glyph name="hyphen" format="2">
  <advance width="553"/>
  <unicode hex="002D"/>
  <outline>
    <contour>
      <point x="20" y="593" type="line"/>
      <point x="533" y="593" type="line"/>
      <point x="533" y="682" type="line"/>
      <point x="20" y="682" type="line"/>
    </contour>
  </outline>
</glyph>
<glyph name="period" format="2">
  <advance width="425"/>
  <unicode hex="002E"/>
  <outline>
    <contour>
      <point x="140" y="69" type="qcurve" smooth="yes"/>
      <point x="140" y="31"/>
      <point x="177" y="-22"/>
      <point x="212" y="-22" type="qcurve" smooth="yes"/>
      <point x="247" y="-22"/>
      <point x="285" y="31"/>
      <point x="285" y="69" type="qcurve" smooth="yes"/>
      <point x="285" y="107"/>
      <point x="247" y="160"/>
      <point x="212" y="160" type="qcurve" smooth="yes"/>
      <point x="177" y="160"/>
      <point x="140" y="107"/>
    </contour>
  </outline>
</glyph>
<glyph name="slash" format="2">
  <advance width="486"/>
  <unicode hex="002F"/>
  <outline>
    <contour>
      <point x="-120" y="-125" type="line"/>
      <point x="-32" y="-125" type="line"/>
      <point x="606" y="1456" type="line"/>
      <point x="518" y="1456" type="line"/>
    </contour>
  </outline>
</glyph>
<glyph name="zero" format="2">
  <advance width="1153"/>
  <unicode hex="0030"/>
  <outline>
    <contour>
      <point x="193" y="478" type="line" smooth="yes"/>
      <point x="193" y="246"/>
      <point x="394" y="-30"/>
      <point x="577" y="-30" type="qcurve" smooth="yes"/>
      <point x="759" y="-30"/>
      <point x="961" y="246"/>
      <point x="961" y="478" type="qcurve" smooth="yes"/>
      <point x="961" y="978" type="line" smooth="yes"/>
      <point x="961" y="1210"/>
      <point x="759" y="1486"/>
      <point x="577" y="1486" type="qcurve" smooth="yes"/>
      <point x="394" y="1486"/>
      <point x="193" y="1210"/>
      <point x="193" y="978" type="qcurve" smooth="yes"/>
    </contour>
    <contour>
      <point x="284" y="468" type="qcurve" smooth="yes"/>
      <point x="284" y="988" type="line" smooth="yes"/>
      <point x="284" y="1167"/>
      <point x="429" y="1401"/>
      <point x="577" y="1401" type="qcurve" smooth="yes"/>
      <point x="725" y="1401"/>
      <point x="870" y="1167"/>
      <point x="870" y="988" type="qcurve" smooth="yes"/>
      <point x="870" y="468" type="line" smooth="yes"/>
      <point x="870" y="288"/>
      <point x="725" y="55"/>
      <point x="577" y="55" type="qcurve" smooth="yes"/>
      <point x="429" y="55"/>
      <point x="284" y="288"/>
    </contour>
  </outline>
</glyph>
<glyph name="two" format="2">
  <advance width="1153"/>
  <unicode hex="0032"/>
  <outline>
    <contour>
      <point x="186" y="0" type="line"/>
      <point x="977" y="0" type="line"/>
      <point x="977" y="84" type="line"/>
      <point x="300" y="84" type="line"/>
      <point x="705" y="595" type="line" smooth="yes"/>
      <point x="810" y="726"/>
      <point x="947" y="952"/>
      <point x="947" y="1090" type="qcurve" smooth="yes"/>
      <point x="947" y="1250"/>
      <point x="751" y="1486"/>
      <point x="584" y="1486" type="qcurve" smooth="yes"/>
      <point x="413" y="1486"/>
      <point x="191" y="1228"/>
      <point x="191" y="1030" type="qcurve" smooth="yes"/>
      <point x="191" y="1020" type="line"/>
      <point x="280" y="1020" type="line"/>
      <point x="280" y="1030" type="line" smooth="yes"/>
      <point x="280" y="1202"/>
      <point x="453" y="1401"/>
      <point x="584" y="1401" type="qcurve" smooth="yes"/>
      <point x="712" y="1401"/>
      <point x="857" y="1214"/>
      <point x="857" y="1080" type="qcurve" smooth="yes"/>
      <point x="857" y="973"/>
      <point x="738" y="774"/>
      <point x="646" y="655" type="qcurve" smooth="yes"/>
      <point x="186" y="79" type="line"/>
    </contour>
  </outline>
</glyph>
<glyph name="four" format="2">
  <advance width="1153"/>
  <unicode hex="0034"/>
  <outline>
    <contour>
      <point x="776" y="0" type="line"/>
      <point x="863" y="0" type="line"/>
      <point x="863" y="1456" type="line"/>
      <point x="779" y="1456" type="line"/>
      <point x="97" y="446" type="line"/>
      <point x="97" y="361" type="line"/>
      <point x="1073" y="361" type="line"/>
      <point x="1073" y="446" type="line"/>
      <point x="833" y="446" type="line"/>
      <point x="799" y="446" type="line"/>
      <point x="199" y="446" type="line"/>
      <point x="768" y="1287" type="line"/>
      <point x="776" y="1287" type="line"/>
      <point x="776" y="416" type="line"/>
      <point x="776" y="393" type="line"/>
    </contour>
  </outline>
</glyph>
<glyph name="six" format="2">
  <advance width="1153"/>
  <unicode hex="0036"/>
  <outline>
    <contour>
      <point x="165" y="614" type="line" smooth="yes"/>
      <point x="165" y="274"/>
      <point x="420" y="-30"/>
      <point x="598" y="-30" type="qcurve" smooth="yes"/>
      <point x="776" y="-30"/>
      <point x="1001" y="244"/>
      <point x="1001" y="464" type="qcurve" smooth="yes"/>
      <point x="1001" y="672"/>
      <point x="792" y="929"/>
      <point x="617" y="929" type="qcurve" smooth="yes"/>
      <point x="441" y="929"/>
      <point x="207" y="668"/>
      <point x="207" y="464" type="qcurve"/>
      <point x="247" y="464" type="line"/>
      <point x="247" y="628"/>
      <point x="460" y="844"/>
      <point x="598" y="844" type="qcurve" smooth="yes"/>
      <point x="747" y="844"/>
      <point x="911" y="646"/>
      <point x="911" y="464" type="qcurve" smooth="yes"/>
      <point x="911" y="269"/>
      <point x="747" y="55"/>
      <point x="598" y="55" type="qcurve" smooth="yes"/>
      <point x="449" y="55"/>
      <point x="253" y="304"/>
      <point x="253" y="604" type="qcurve" smooth="yes"/>
      <point x="253" y="654" type="line" smooth="yes"/>
      <point x="253" y="1015"/>
      <point x="558" y="1401"/>
      <point x="815" y="1401" type="qcurve" smooth="yes"/>
      <point x="836" y="1401" type="line"/>
      <point x="836" y="1486" type="line"/>
      <point x="815" y="1486" type="line" smooth="yes"/>
      <point x="509" y="1486"/>
      <point x="165" y="1028"/>
      <point x="165" y="644" type="qcurve" smooth="yes"/>
    </contour>
  </outline>
</glyph>
<glyph name="seven" format="2">
  <advance width="1153"/>
  <unicode hex="0037"/>
  <outline>
    <contour>
      <point x="305" y="0" type="line"/>
      <point x="402" y="0" type="line"/>
      <point x="1014" y="1386" type="line"/>
      <point x="1014" y="1456" type="line"/>
      <point x="132" y="1456" type="line"/>
      <point x="132" y="1369" type="line"/>
      <point x="920" y="1369" type="line"/>
    </contour>
  </outline>
</glyph>
<glyph name="equal" format="2">
  <advance width="1165"/>
  <unicode hex="003D"/>
  <outline>
    <contour>
      <point x="177" y="434" type="line"/>
      <point x="987" y="434" type="line"/>
      <point x="987" y="520" type="line"/>
      <point x="177" y="520" type="line"/>
    </contour>
    <contour>
      <point x="177" y="828" type="line"/>
      <point x="987" y="828" type="line"/>
      <point x="987" y="914" type="line"/>
      <point x="177" y="914" type="line"/>
    </contour>
  </outline>
</glyph>
<glyph name="at" format="2">
  <advance width="1951"/>
  <unicode hex="0040"/>
  <outline>
    <contour>
      <point x="618" y="400" type="qcurve" smooth="yes"/>
      <point x="618" y="220"/>
      <point x="751" y="0"/>
      <point x="864" y="0" type="qcurve" smooth="yes"/>
      <point x="942" y="0"/>
      <point x="1071" y="101"/>
      <point x="1107" y="187" type="qcurve"/>
      <point x="1141" y="101"/>
      <point x="1300" y="0"/>
      <point x="1414" y="0" type="qcurve" smooth="yes"/>
      <point x="1600" y="0"/>
      <point x="1857" y="360"/>
      <point x="1857" y="650" type="qcurve" smooth="yes"/>
      <point x="1857" y="1000"/>
      <point x="1402" y="1486"/>
      <point x="1022" y="1486" type="qcurve" smooth="yes"/>
      <point x="638" y="1486"/>
      <point x="94" y="880"/>
      <point x="94" y="460" type="qcurve" smooth="yes"/>
      <point x="94" y="40"/>
      <point x="576" y="-446"/>
      <point x="918" y="-446" type="qcurve" smooth="yes"/>
      <point x="1063" y="-446"/>
      <point x="1261" y="-400"/>
      <point x="1334" y="-356" type="qcurve"/>
      <point x="1334" y="-272" type="line"/>
      <point x="1265" y="-308"/>
      <point x="1063" y="-362"/>
      <point x="918" y="-362" type="qcurve" smooth="yes"/>
      <point x="603" y="-362"/>
      <point x="182" y="65"/>
      <point x="182" y="460" type="qcurve" smooth="yes"/>
      <point x="182" y="850"/>
      <point x="665" y="1402"/>
      <point x="1022" y="1402" type="qcurve" smooth="yes"/>
      <point x="1379" y="1402"/>
      <point x="1774" y="949"/>
      <point x="1774" y="650" type="qcurve" smooth="yes"/>
      <point x="1774" y="394"/>
      <point x="1570" y="78"/>
      <point x="1408" y="78" type="qcurve" smooth="yes"/>
      <point x="1295" y="78"/>
      <point x="1162" y="196"/>
      <point x="1195" y="350" type="qcurve" smooth="yes"/>
      <point x="1319" y="946" type="line"/>
      <point x="1292" y="946" type="line"/>
      <point x="1257" y="980"/>
      <point x="1126" y="1052"/>
      <point x="1051" y="1052" type="qcurve" smooth="yes"/>
      <point x="874" y="1052"/>
      <point x="618" y="680"/>
    </contour>
    <contour>
      <point x="707" y="400" type="qcurve" smooth="yes"/>
      <point x="707" y="647"/>
      <point x="911" y="973"/>
      <point x="1067" y="973" type="qcurve" smooth="yes"/>
      <point x="1110" y="973"/>
      <point x="1199" y="942"/>
      <point x="1228" y="918" type="qcurve"/>
      <point x="1113" y="390" type="line" smooth="yes"/>
      <point x="1076" y="222"/>
      <point x="962" y="84"/>
      <point x="887" y="84" type="qcurve" smooth="yes"/>
      <point x="800" y="84"/>
      <point x="707" y="245"/>
    </contour>
  </outline>
</glyph>
<glyph name="A" format="2">
  <advance width="1004"/>
  <unicode hex="0041"/>
  <outline>
    <contour>
      <point x="0" y="0" type="line"/>
      <point x="81" y="0" type="line"/>
      <point x="446" y="1208" type="line" smooth="yes"/>
      <point x="457" y="1245"/>
      <point x="481" y="1356"/>
      <point x="489" y="1385" type="qcurve"/>
      <point x="500" y="1385" type="line"/>
      <point x="506" y="1356"/>
      <point x="541" y="1245"/>
      <point x="552" y="1208" type="qcurve" smooth="yes"/>
      <point x="917" y="0" type="line"/>
      <point x="1004" y="0" type="line"/>
      <point x="555" y="1456" type="line"/>
      <point x="442" y="1456" type="line"/>
    </contour>
    <contour>
      <point x="176" y="428" type="line"/>
      <point x="835" y="428" type="line"/>
      <point x="806" y="502" type="line"/>
      <point x="196" y="502" type="line"/>
    </contour>
  </outline>
</glyph>
<glyph name="C" format="2">
  <advance width="1117"/>
  <unicode hex="0043"/>
  <outline>
    <contour>
      <point x="95" y="687" type="line" smooth="yes"/>
      <point x="95" y="349"/>
      <point x="392" y="-30"/>
      <point x="616" y="-30" type="qcurve" smooth="yes"/>
      <point x="837" y="-30"/>
      <point x="1066" y="256"/>
      <point x="1086" y="456" type="qcurve" smooth="yes"/>
      <point x="1087" y="466" type="line"/>
      <point x="1007" y="466" type="line"/>
      <point x="1006" y="456" type="line" smooth="yes"/>
      <point x="990" y="304"/>
      <point x="809" y="46"/>
      <point x="616" y="46" type="qcurve" smooth="yes"/>
      <point x="423" y="46"/>
      <point x="176" y="387"/>
      <point x="176" y="687" type="qcurve" smooth="yes"/>
      <point x="176" y="769" type="line" smooth="yes"/>
      <point x="176" y="1069"/>
      <point x="423" y="1410"/>
      <point x="616" y="1410" type="qcurve" smooth="yes"/>
      <point x="809" y="1410"/>
      <point x="990" y="1152"/>
      <point x="1006" y="1000" type="qcurve" smooth="yes"/>
      <point x="1007" y="990" type="line"/>
      <point x="1087" y="990" type="line"/>
      <point x="1086" y="1000" type="line" smooth="yes"/>
      <point x="1066" y="1200"/>
      <point x="837" y="1486"/>
      <point x="616" y="1486" type="qcurve" smooth="yes"/>
      <point x="392" y="1486"/>
      <point x="95" y="1107"/>
      <point x="95" y="769" type="qcurve" smooth="yes"/>
    </contour>
  </outline>
</glyph>
<glyph name="L" format="2">
  <advance width="885"/>
  <unicode hex="004C"/>
  <outline>
    <contour>
      <point x="150" y="0" type="line"/>
      <point x="891" y="0" type="line"/>
      <point x="891" y="75" type="line"/>
      <point x="230" y="75" type="line"/>
      <point x="230" y="1456" type="line"/>
      <point x="150" y="1456" type="line"/>
    </contour>
  </outline>
</glyph>
<glyph name="T" format="2">
  <advance width="995"/>
  <unicode hex="0054"/>
  <outline>
    <contour>
      <point x="4" y="1381" type="line"/>
      <point x="458" y="1381" type="line"/>
      <point x="458" y="0" type="line"/>
      <point x="537" y="0" type="line"/>
      <point x="537" y="1381" type="line"/>
      <point x="991" y="1381" type="line"/>
      <point x="991" y="1456" type="line"/>
      <point x="4" y="1456" type="line"/>
    </contour>
  </outline>
</glyph>
<glyph name="X" format="2">
  <advance width="1118"/>
  <unicode hex="0058"/>
  <outline>
    <contour>
      <point x="5" y="0" type="line"/>
      <point x="99" y="0" type="line"/>
      <point x="569" y="699" type="line"/>
      <point x="576" y="699" type="line"/>
      <point x="1087" y="1456" type="line"/>
      <point x="992" y="1456" type="line"/>
      <point x="540" y="777" type="line"/>
      <point x="532" y="777" type="line"/>
    </contour>
    <contour>
      <point x="31" y="1456" type="line"/>
      <point x="532" y="699" type="line"/>
      <point x="536" y="699" type="line"/>
      <point x="1014" y="0" type="line"/>
      <point x="1113" y="0" type="line"/>
      <point x="577" y="777" type="line"/>
      <point x="572" y="777" type="line"/>
      <point x="131" y="1456" type="line"/>
    </contour>
  </outline>
</glyph>
<glyph name="Z" format="2">
  <advance width="1035"/>
  <unicode hex="005A"/>
  <outline>
    <contour>
      <point x="16" y="0" type="line"/>
      <point x="1019" y="0" type="line"/>
      <point x="1019" y="75" type="line"/>
      <point x="125" y="75" type="line"/>
      <point x="986" y="1399" type="line"/>
      <point x="986" y="1456" type="line"/>
      <point x="28" y="1456" type="line"/>
      <point x="28" y="1381" type="line"/>
      <point x="877" y="1381" type="line"/>
      <point x="16" y="57" type="line"/>
    </contour>
  </outline>
</glyph>
<glyph name="backslash" format="2">
  <advance width="487"/>
  <unicode hex="005C"/>
  <outline>
    <contour>
      <point x="-120" y="1456" type="line"/>
      <point x="518" y="-125" type="line"/>
      <point x="607" y="-125" type="line"/>
      <point x="-32" y="1456" type="line"/>
    </contour>
  </outline>
</glyph>
<glyph name="bracketright" format="2">
  <advance width="514"/>
  <unicode hex="005D"/>
  <outline>
    <contour>
      <point x="390" y="-310" type="line"/>
      <point x="390" y="1456" type="line"/>
      <point x="-9" y="1456" type="line"/>
      <point x="-9" y="1371" type="line"/>
      <point x="301" y="1371" type="line"/>
      <point x="301" y="-225" type="line"/>
      <point x="-9" y="-225" type="line"/>
      <point x="-9" y="-310" type="line"/>
    </contour>
  </outline>
</glyph>
<glyph name="asciicircum" format="2">
  <advance width="1079"/>
  <unicode hex="005E"/>
  <outline>
    <contour>
      <point x="5" y="720" type="line"/>
      <point x="109" y="720" type="line"/>
      <point x="539" y="1364" type="line"/>
      <point x="970" y="720" type="line"/>
      <point x="1074" y="720" type="line"/>
      <point x="576" y="1456" type="line"/>
      <point x="502" y="1456" type="line"/>
    </contour>
  </outline>
</glyph>
<glyph name="underscore" format="2">
  <advance width="921"/>
  <unicode hex="005F"/>
  <outline>
    <contour>
      <point x="-20" y="-187" type="line"/>
      <point x="300" y="-187" type="line"/>
      <point x="300" y="-100" type="line"/>
      <point x="-20" y="-100" type="line"/>
    </contour>
    <contour>
      <point x="300" y="-187" type="line"/>
      <point x="621" y="-187" type="line"/>
      <point x="621" y="-100" type="line"/>
      <point x="300" y="-100" type="line"/>
    </contour>
    <contour>
      <point x="621" y="-187" type="line"/>
      <point x="941" y="-187" type="line"/>
      <point x="941" y="-100" type="line"/>
      <point x="621" y="-100" type="line"/>
    </contour>
  </outline>
</glyph>
<glyph name="e" format="2">
  <advance width="736"/>
  <unicode hex="0065"/>
  <outline>
    <contour>
      <point x="52" y="434" type="line" smooth="yes"/>
      <point x="52" y="231"/>
      <point x="243" y="-26"/>
      <point x="422" y="-26" type="qcurve" smooth="yes"/>
      <point x="525" y="-26"/>
      <point x="666" y="62"/>
      <point x="705" y="117" type="qcurve"/>
      <point x="653" y="164" type="line"/>
      <point x="613" y="109"/>
      <point x="501" y="45"/>
      <point x="422" y="45" type="qcurve" smooth="yes"/>
      <point x="271" y="45"/>
      <point x="128" y="269"/>
      <point x="128" y="434" type="qcurve" smooth="yes"/>
      <point x="128" y="461" type="line" smooth="yes"/>
      <point x="128" y="625"/>
      <point x="264" y="849"/>
      <point x="395" y="849" type="qcurve" smooth="yes"/>
      <point x="526" y="849"/>
      <point x="636" y="652"/>
      <point x="636" y="519" type="qcurve"/>
      <point x="636" y="508" type="line"/>
      <point x="92" y="508" type="line"/>
      <point x="92" y="440" type="line"/>
      <point x="711" y="440" type="line"/>
      <point x="711" y="476" type="line" smooth="yes"/>
      <point x="711" y="680"/>
      <point x="547" y="920"/>
      <point x="395" y="920" type="qcurve" smooth="yes"/>
      <point x="240" y="920"/>
      <point x="52" y="663"/>
      <point x="52" y="461" type="qcurve" smooth="yes"/>
    </contour>
  </outline>
</glyph>
<glyph name="i" format="2">
  <advance width="302"/>
  <unicode hex="0069"/>
  <outline>
    <contour>
      <point x="113" y="0" type="line"/>
      <point x="189" y="0" type="line"/>
      <point x="189" y="894" type="line"/>
      <point x="113" y="894" type="line"/>
    </contour>
    <contour>
      <point x="99" y="1259" type="qcurve" smooth="yes"/>
      <point x="99" y="1231"/>
      <point x="126" y="1193"/>
      <point x="151" y="1193" type="qcurve" smooth="yes"/>
      <point x="176" y="1193"/>
      <point x="203" y="1231"/>
      <point x="203" y="1259" type="qcurve" smooth="yes"/>
      <point x="203" y="1287"/>
      <point x="176" y="1325"/>
      <point x="151" y="1325" type="qcurve" smooth="yes"/>
      <point x="126" y="1325"/>
      <point x="99" y="1287"/>
    </contour>
  </outline>
</glyph>
<glyph name="r" format="2">
  <advance width="498"/>
  <unicode hex="0072"/>
  <outline>
    <contour>
      <point x="106" y="0" type="line"/>
      <point x="181" y="0" type="line"/>
      <point x="181" y="681" type="line"/>
      <point x="212" y="749"/>
      <point x="333" y="842"/>
      <point x="411" y="842" type="qcurve" smooth="yes"/>
      <point x="435" y="842"/>
      <point x="474" y="837"/>
      <point x="492" y="833" type="qcurve"/>
      <point x="492" y="908" type="line"/>
      <point x="483" y="911"/>
      <point x="440" y="920"/>
      <point x="420" y="920" type="qcurve" smooth="yes"/>
      <point x="336" y="920"/>
      <point x="215" y="832"/>
      <point x="177" y="774" type="qcurve"/>
      <point x="175" y="774" type="line"/>
      <point x="173" y="894" type="line"/>
      <point x="106" y="894" type="line"/>
    </contour>
  </outline>
</glyph>
<glyph name="u" format="2">
  <advance width="803"/>
  <unicode hex="0075"/>
  <outline>
    <contour>
      <point x="97" y="273" type="line" smooth="yes"/>
      <point x="97" y="117"/>
      <point x="237" y="-17"/>
      <point x="356" y="-17" type="qcurve" smooth="yes"/>
      <point x="442" y="-17"/>
      <point x="580" y="58"/>
      <point x="626" y="123" type="qcurve"/>
      <point x="628" y="123" type="line"/>
      <point x="630" y="0" type="line"/>
      <point x="697" y="0" type="line"/>
      <point x="697" y="894" type="line"/>
      <point x="622" y="894" type="line"/>
      <point x="622" y="212" type="line"/>
      <point x="585" y="143"/>
      <point x="460" y="54"/>
      <point x="377" y="54" type="qcurve" smooth="yes"/>
      <point x="279" y="54"/>
      <point x="172" y="155"/>
      <point x="172" y="271" type="qcurve" smooth="yes"/>
      <point x="172" y="894" type="line"/>
      <point x="97" y="894" type="line"/>
    </contour>
  </outline>
</glyph>
<glyph name="w" format="2">
  <advance width="1186"/>
  <unicode hex="0077"/>
  <outline>
    <contour>
      <point x="1" y="894" type="line"/>
      <point x="260" y="0" type="line"/>
      <point x="333" y="0" type="line"/>
      <point x="556" y="667" type="line" smooth="yes"/>
      <point x="567" y="701"/>
      <point x="585" y="769"/>
      <point x="592" y="803" type="qcurve"/>
      <point x="597" y="803" type="line"/>
      <point x="604" y="769"/>
      <point x="622" y="701"/>
      <point x="633" y="667" type="qcurve" smooth="yes"/>
      <point x="853" y="0" type="line"/>
      <point x="927" y="0" type="line"/>
      <point x="1185" y="894" type="line"/>
      <point x="1111" y="894" type="line"/>
      <point x="924" y="222" type="line" smooth="yes"/>
      <point x="915" y="188"/>
      <point x="900" y="120"/>
      <point x="894" y="86" type="qcurve"/>
      <point x="889" y="86" type="line"/>
      <point x="882" y="120"/>
      <point x="863" y="188"/>
      <point x="852" y="222" type="qcurve" smooth="yes"/>
      <point x="633" y="894" type="line"/>
      <point x="557" y="894" type="line"/>
      <point x="340" y="222" type="line" smooth="yes"/>
      <point x="329" y="188"/>
      <point x="310" y="120"/>
      <point x="304" y="86" type="qcurve"/>
      <point x="299" y="86" type="line"/>
      <point x="293" y="120"/>
      <point x="278" y="188"/>
      <point x="268" y="222" type="qcurve" smooth="yes"/>
      <point x="80" y="894" type="line"/>
    </contour>
  </outline>
</glyph>
<glyph name="x" format="2">
  <advance width="736"/>
  <unicode hex="0078"/>
  <outline>
    <contour>
      <point x="-3" y="0" type="line"/>
      <point x="86" y="0" type="line"/>
      <point x="387" y="429" type="line"/>
      <point x="395" y="429" type="line"/>
      <point x="721" y="894" type="line"/>
      <point x="633" y="894" type="line"/>
      <point x="347" y="477" type="line"/>
      <point x="339" y="477" type="line"/>
    </contour>
    <contour>
      <point x="15" y="894" type="line"/>
      <point x="341" y="429" type="line"/>
      <point x="348" y="429" type="line"/>
      <point x="648" y="0" type="line"/>
      <point x="739" y="0" type="line"/>
      <point x="397" y="477" type="line"/>
      <point x="390" y="477" type="line"/>
      <point x="107" y="894" type="line"/>
    </contour>
  </outline>
</glyph>
<glyph name="copyright" format="2">
  <advance width="1613"/>
  <unicode hex="00A9"/>
  <outline>
    <contour>
      <point x="74" y="698" type="qcurve" smooth="yes"/>
      <point x="74" y="364"/>
      <point x="508" y="-82"/>
      <point x="807" y="-82" type="qcurve" smooth="yes"/>
      <point x="1105" y="-82"/>
      <point x="1539" y="364"/>
      <point x="1539" y="698" type="qcurve" smooth="yes"/>
      <point x="1539" y="1032"/>
      <point x="1105" y="1478"/>
      <point x="807" y="1478" type="qcurve" smooth="yes"/>
      <point x="508" y="1478"/>
      <point x="74" y="1032"/>
    </contour>
    <contour>
      <point x="153" y="698" type="qcurve" smooth="yes"/>
      <point x="153" y="989"/>
      <point x="527" y="1397"/>
      <point x="807" y="1397" type="qcurve" smooth="yes"/>
      <point x="1086" y="1397"/>
      <point x="1461" y="989"/>
      <point x="1461" y="698" type="qcurve" smooth="yes"/>
      <point x="1461" y="407"/>
      <point x="1086" y="-1"/>
      <point x="807" y="-1" type="qcurve" smooth="yes"/>
      <point x="527" y="-1"/>
      <point x="153" y="407"/>
    </contour>
    <contour>
      <point x="468" y="668" type="line" smooth="yes"/>
      <point x="468" y="488"/>
      <point x="662" y="264"/>
      <point x="808" y="264" type="qcurve" smooth="yes"/>
      <point x="945" y="264"/>
      <point x="1124" y="440"/>
      <point x="1124" y="570" type="qcurve" smooth="yes"/>
      <point x="1124" y="580" type="line"/>
      <point x="1045" y="580" type="line"/>
      <point x="1045" y="570" type="line" smooth="yes"/>
      <point x="1045" y="461"/>
      <point x="919" y="343"/>
      <point x="808" y="343" type="qcurve" smooth="yes"/>
      <point x="686" y="343"/>
      <point x="549" y="520"/>
      <point x="549" y="668" type="qcurve" smooth="yes"/>
      <point x="549" y="748" type="line" smooth="yes"/>
      <point x="549" y="896"/>
      <point x="686" y="1073"/>
      <point x="808" y="1073" type="qcurve" smooth="yes"/>
      <point x="919" y="1073"/>
      <point x="1045" y="955"/>
      <point x="1045" y="846" type="qcurve" smooth="yes"/>
      <point x="1045" y="836" type="line"/>
      <point x="1124" y="836" type="line"/>
      <point x="1124" y="846" type="line" smooth="yes"/>
      <point x="1124" y="976"/>
      <point x="945" y="1152"/>
      <point x="808" y="1152" type="qcurve" smooth="yes"/>
      <point x="662" y="1152"/>
      <point x="468" y="928"/>
      <point x="468" y="748" type="qcurve" smooth="yes"/>
    </contour>
  </outline>
</glyph>
<glyph name="ordfeminine" format="2">
  <advance width="733"/>
  <unicode hex="00AA"/>
  <outline>
    <contour>
      <point x="46" y="856" type="qcurve" smooth="yes"/>
      <point x="46" y="737"/>
      <point x="187" y="611"/>
      <point x="289" y="611" type="qcurve" smooth="yes"/>
      <point x="393" y="611"/>
      <point x="521" y="700"/>
      <point x="554" y="754" type="qcurve"/>
      <point x="558" y="719"/>
      <point x="575" y="648"/>
      <point x="587" y="627" type="qcurve"/>
      <point x="663" y="627" type="line"/>
      <point x="663" y="639" type="line"/>
      <point x="648" y="674"/>
      <point x="632" y="764"/>
      <point x="632" y="815" type="qcurve" smooth="yes"/>
      <point x="632" y="1192" type="line" smooth="yes"/>
      <point x="632" y="1333"/>
      <point x="492" y="1476"/>
      <point x="370" y="1476" type="qcurve" smooth="yes"/>
      <point x="248" y="1476"/>
      <point x="96" y="1330"/>
      <point x="96" y="1222" type="qcurve" smooth="yes"/>
      <point x="96" y="1216" type="line"/>
      <point x="177" y="1216" type="line"/>
      <point x="177" y="1222" type="line" smooth="yes"/>
      <point x="177" y="1293"/>
      <point x="267" y="1401"/>
      <point x="366" y="1401" type="qcurve" smooth="yes"/>
      <point x="465" y="1401"/>
      <point x="551" y="1284"/>
      <point x="551" y="1192" type="qcurve" smooth="yes"/>
      <point x="551" y="1108" type="line"/>
      <point x="349" y="1108" type="line" smooth="yes"/>
      <point x="217" y="1108"/>
      <point x="46" y="976"/>
    </contour>
    <contour>
      <point x="128" y="864" type="qcurve" smooth="yes"/>
      <point x="128" y="944"/>
      <point x="248" y="1039"/>
      <point x="366" y="1039" type="qcurve" smooth="yes"/>
      <point x="551" y="1039" type="line"/>
      <point x="551" y="886" type="line"/>
      <point x="551" y="814"/>
      <point x="401" y="686"/>
      <point x="309" y="686" type="qcurve" smooth="yes"/>
      <point x="216" y="686"/>
      <point x="128" y="780"/>
    </contour>
  </outline>
</glyph>
<glyph name="guillemetleft" format="2">
  <advance width="902"/>
  <unicode hex="00AB"/>
  <outline>
    <contour>
      <point x="389" y="204" type="line"/>
      <point x="481" y="204" type="line"/>
      <point x="160" y="602" type="line"/>
      <point x="481" y="1000" type="line"/>
      <point x="389" y="1000" type="line"/>
      <point x="52" y="612" type="line"/>
      <point x="52" y="592" type="line"/>
    </contour>
    <contour>
      <point x="764" y="204" type="line"/>
      <point x="856" y="204" type="line"/>
      <point x="535" y="602" type="line"/>
      <point x="856" y="1000" type="line"/>
      <point x="764" y="1000" type="line"/>
      <point x="427" y="612" type="line"/>
      <point x="427" y="592" type="line"/>
    </contour>
  </outline>
</glyph>
<glyph name="logicalnot" format="2">
  <advance width="1166"/>
  <unicode hex="00AC"/>
  <outline>
    <contour>
      <point x="154" y="654" type="line"/>
      <point x="929" y="654" type="line"/>
      <point x="929" y="417" type="line"/>
      <point x="1012" y="417" type="line"/>
      <point x="1012" y="746" type="line"/>
      <point x="154" y="746" type="line"/>
    </contour>
  </outline>
</glyph>
<glyph name="hyphensoft" format="2">
  <advance width="553"/>
  <unicode hex="00AD"/>
  <outline>
    <contour>
      <point x="20" y="593" type="line"/>
      <point x="533" y="593" type="line"/>
      <point x="533" y="682" type="line"/>
      <point x="20" y="682" type="line"/>
    </contour>
  </outline>
</glyph>
<glyph name="registered" format="2">
  <advance width="1613"/>
  <unicode hex="00AE"/>
  <outline>
    <contour>
      <point x="74" y="698" type="qcurve" smooth="yes"/>
      <point x="74" y="364"/>
      <point x="508" y="-82"/>
      <point x="807" y="-82" type="qcurve" smooth="yes"/>
      <point x="1105" y="-82"/>
      <point x="1539" y="364"/>
      <point x="1539" y="698" type="qcurve" smooth="yes"/>
      <point x="1539" y="1032"/>
      <point x="1105" y="1478"/>
      <point x="807" y="1478" type="qcurve" smooth="yes"/>
      <point x="508" y="1478"/>
      <point x="74" y="1032"/>
    </contour>
    <contour>
      <point x="153" y="698" type="qcurve" smooth="yes"/>
      <point x="153" y="989"/>
      <point x="527" y="1397"/>
      <point x="807" y="1397" type="qcurve" smooth="yes"/>
      <point x="1086" y="1397"/>
      <point x="1461" y="989"/>
      <point x="1461" y="698" type="qcurve" smooth="yes"/>
      <point x="1461" y="407"/>
      <point x="1086" y="-1"/>
      <point x="807" y="-1" type="qcurve" smooth="yes"/>
      <point x="527" y="-1"/>
      <point x="153" y="407"/>
    </contour>
    <contour>
      <point x="574" y="284" type="line"/>
      <point x="654" y="284" type="line"/>
      <point x="654" y="592" type="line"/>
      <point x="816" y="592" type="line" smooth="yes"/>
      <point x="927" y="592"/>
      <point x="1071" y="742"/>
      <point x="1071" y="867" type="qcurve" smooth="yes"/>
      <point x="1071" y="992"/>
      <point x="927" y="1132"/>
      <point x="816" y="1132" type="qcurve" smooth="yes"/>
      <point x="574" y="1132" type="line"/>
    </contour>
    <contour>
      <point x="654" y="666" type="line"/>
      <point x="654" y="1058" type="line"/>
      <point x="816" y="1058" type="line" smooth="yes"/>
      <point x="902" y="1058"/>
      <point x="991" y="959"/>
      <point x="991" y="862" type="qcurve" smooth="yes"/>
      <point x="991" y="765"/>
      <point x="902" y="666"/>
      <point x="816" y="666" type="qcurve" smooth="yes"/>
    </contour>
    <contour>
      <point x="1039" y="284" type="line"/>
      <point x="1134" y="284" type="line"/>
      <point x="901" y="629" type="line"/>
      <point x="815" y="629" type="line"/>
    </contour>
  </outline>
</glyph>
<glyph name="macron" format="2">
  <advance width="1009"/>
  <unicode hex="00AF"/>
  <outline>
    <contour>
      <point x="217" y="1211" type="line"/>
      <point x="792" y="1211" type="line"/>
      <point x="792" y="1295" type="line"/>
      <point x="217" y="1295" type="line"/>
    </contour>
  </outline>
</glyph>
<glyph name="acute" format="2">
  <advance width="996"/>
  <unicode hex="00B4"/>
  <outline>
    <contour>
      <point x="432" y="1156" type="line"/>
      <point x="520" y="1156" type="line"/>
      <point x="777" y="1456" type="line"/>
      <point x="667" y="1456" type="line"/>
    </contour>
  </outline>
</glyph>
<glyph name="periodcentered" format="2">
  <advance width="425"/>
  <unicode hex="00B7"/>
  <outline>
    <contour>
      <point x="140" y="730" type="qcurve" smooth="yes"/>
      <point x="140" y="692"/>
      <point x="177" y="639"/>
      <point x="212" y="639" type="qcurve" smooth="yes"/>
      <point x="247" y="639"/>
      <point x="285" y="692"/>
      <point x="285" y="730" type="qcurve" smooth="yes"/>
      <point x="285" y="768"/>
      <point x="247" y="821"/>
      <point x="212" y="821" type="qcurve" smooth="yes"/>
      <point x="177" y="821"/>
      <point x="140" y="768"/>
    </contour>
  </outline>
</glyph>
<glyph name="eth" format="2">
  <advance width="935"/>
  <unicode hex="00F0"/>
  <outline>
    <contour>
      <point x="60" y="474" type="qcurve" smooth="yes"/>
      <point x="60" y="248"/>
      <point x="272" y="-30"/>
      <point x="444" y="-30" type="qcurve" smooth="yes"/>
      <point x="617" y="-30"/>
      <point x="835" y="324"/>
      <point x="835" y="724" type="qcurve" smooth="yes"/>
      <point x="835" y="804" type="line" smooth="yes"/>
      <point x="835" y="1201"/>
      <point x="642" y="1556"/>
      <point x="423" y="1556" type="qcurve" smooth="yes"/>
      <point x="307" y="1556"/>
      <point x="122" y="1443"/>
      <point x="78" y="1377" type="qcurve"/>
      <point x="132" y="1318" type="line"/>
      <point x="177" y="1378"/>
      <point x="322" y="1471"/>
      <point x="423" y="1471" type="qcurve" smooth="yes"/>
      <point x="594" y="1471"/>
      <point x="747" y="1185"/>
      <point x="747" y="814" type="qcurve" smooth="yes"/>
      <point x="747" y="714" type="line" smooth="yes"/>
      <point x="747" y="331"/>
      <point x="580" y="55"/>
      <point x="444" y="55" type="qcurve" smooth="yes"/>
      <point x="308" y="55"/>
      <point x="149" y="274"/>
      <point x="149" y="474" type="qcurve" smooth="yes"/>
      <point x="149" y="674"/>
      <point x="308" y="891"/>
      <point x="444" y="891" type="qcurve" smooth="yes"/>
      <point x="566" y="891"/>
      <point x="752" y="667"/>
      <point x="752" y="474" type="qcurve"/>
      <point x="795" y="474" type="line"/>
      <point x="795" y="700"/>
      <point x="593" y="976"/>
      <point x="425" y="976" type="qcurve" smooth="yes"/>
      <point x="263" y="976"/>
      <point x="60" y="700"/>
    </contour>
    <contour>
      <point x="357" y="1163" type="line"/>
      <point x="398" y="1096" type="line"/>
      <point x="875" y="1412" type="line"/>
      <point x="833" y="1479" type="line"/>
    </contour>
  </outline>
</glyph>
<glyph name="endash" format="2">
  <advance width="1259"/>
  <unicode hex="2013"/>
  <outline>
    <contour>
      <point x="104" y="593" type="line"/>
      <point x="1155" y="593" type="line"/>
      <point x="1155" y="682" type="line"/>
      <point x="104" y="682" type="line"/>
    </contour>
  </outline>
</glyph>
<glyph name="quotesinglbase" format="2">
  <advance width="320"/>
  <unicode hex="201A"/>
  <outline>
    <contour>
      <point x="61" y="-138" type="qcurve"/>
      <point x="126" y="-180" type="line"/>
      <point x="170" y="-131"/>
      <point x="220" y="-7"/>
      <point x="220" y="73" type="qcurve" smooth="yes"/>
      <point x="220" y="160" type="line"/>
      <point x="120" y="160" type="line"/>
      <point x="120" y="73" type="line" smooth="yes"/>
      <point x="120" y="7"/>
      <point x="90" y="-91"/>
    </contour>
  </outline>
</glyph>
<glyph name="quotedblright" format="2">
  <advance width="620"/>
  <unicode hex="201D"/>
  <outline>
    <contour>
      <point x="61" y="1158" type="qcurve"/>
      <point x="126" y="1116" type="line"/>
      <point x="170" y="1164"/>
      <point x="220" y="1289"/>
      <point x="220" y="1369" type="qcurve" smooth="yes"/>
      <point x="220" y="1456" type="line"/>
      <point x="120" y="1456" type="line"/>
      <point x="120" y="1369" type="line" smooth="yes"/>
      <point x="120" y="1303"/>
      <point x="90" y="1204"/>
    </contour>
    <contour>
      <point x="362" y="1158" type="qcurve"/>
      <point x="426" y="1116" type="line"/>
      <point x="470" y="1164"/>
      <point x="520" y="1289"/>
      <point x="520" y="1369" type="qcurve" smooth="yes"/>
      <point x="520" y="1456" type="line"/>
      <point x="420" y="1456" type="line"/>
      <point x="420" y="1369" type="line" smooth="yes"/>
      <point x="420" y="1303"/>
      <point x="390" y="1204"/>
    </contour>
  </outline>
</glyph>
<glyph name="three.inferior" format="2">
  <advance width="711"/>
  <unicode hex="2083"/>
  <outline>
    <contour>
      <point x="246" y="92" type="line"/>
      <point x="246" y="14" type="line"/>
      <point x="357" y="14" type="line" smooth="yes"/>
      <point x="488" y="14"/>
      <point x="633" y="130"/>
      <point x="633" y="209" type="qcurve" smooth="yes"/>
      <point x="633" y="318"/>
      <point x="470" y="433"/>
      <point x="340" y="433" type="qcurve" smooth="yes"/>
      <point x="221" y="433"/>
      <point x="54" y="313"/>
      <point x="54" y="212" type="qcurve"/>
      <point x="211" y="212" type="line"/>
      <point x="211" y="255"/>
      <point x="286" y="305"/>
      <point x="343" y="305" type="qcurve" smooth="yes"/>
      <point x="412" y="305"/>
      <point x="476" y="245"/>
      <point x="476" y="201" type="qcurve" smooth="yes"/>
      <point x="476" y="153"/>
      <point x="402" y="92"/>
      <point x="330" y="92" type="qcurve" smooth="yes"/>
    </contour>
    <contour>
      <point x="246" y="-23" type="line"/>
      <point x="330" y="-23" type="line" smooth="yes"/>
      <point x="403" y="-23"/>
      <point x="489" y="-76"/>
      <point x="489" y="-139" type="qcurve" smooth="yes"/>
      <point x="489" y="-188"/>
      <point x="415" y="-250"/>
      <point x="346" y="-250" type="qcurve" smooth="yes"/>
      <point x="280" y="-250"/>
      <point x="200" y="-189"/>
      <point x="200" y="-144" type="qcurve"/>
      <point x="43" y="-144" type="line"/>
      <point x="43" y="-266"/>
      <point x="228" y="-378"/>
      <point x="341" y="-378" type="qcurve" smooth="yes"/>
      <point x="471" y="-378"/>
      <point x="647" y="-257"/>
      <point x="647" y="-147" type="qcurve" smooth="yes"/>
      <point x="647" y="-51"/>
      <point x="506" y="55"/>
      <point x="357" y="55" type="qcurve" smooth="yes"/>
      <point x="246" y="55" type="line"/>
    </contour>
  </outline>
</glyph>
<glyph name="four.inferior" format="2">
  <advance width="711"/>
  <unicode hex="2084"/>
  <outline>
    <contour>
      <point x="680" y="-67" type="line"/>
      <point x="192" y="-67" type="line"/>
      <point x="399" y="193" type="line"/>
      <point x="536" y="422" type="line"/>
      <point x="412" y="422" type="line"/>
      <point x="34" y="-95" type="line"/>
      <point x="41" y="-197" type="line"/>
      <point x="680" y="-197" type="line"/>
    </contour>
    <contour>
      <point x="572" y="422" type="line"/>
      <point x="415" y="422" type="line"/>
      <point x="415" y="-367" type="line"/>
      <point x="572" y="-367" type="line"/>
    </contour>
  </outline>
</glyph>
<glyph name="minus" format="2">
  <advance width="1166"/>
  <unicode hex="2212"/>
  <outline>
    <contour>
      <point x="154" y="629" type="line"/>
      <point x="1012" y="629" type="line"/>
      <point x="1012" y="719" type="line"/>
      <point x="154" y="719" type="line"/>
    </contour>
  </outline>
</glyph>
<glyph name="divisionslash" format="2">
  <advance width="636"/>
  <unicode hex="2215"/>
  <outline>
    <contour>
      <point x="-70" y="-125" type="line"/>
      <point x="18" y="-125" type="line"/>
      <point x="656" y="1456" type="line"/>
      <point x="568" y="1456" type="line"/>
    </contour>
  </outline>
</glyph>
<glyph name="fl" format="2">
  <advance width="962"/>
  <unicode hex="FB02"/>
  <outline>
    <contour>
      <point x="183" y="0" type="line"/>
      <point x="271" y="0" type="line"/>
      <point x="271" y="1005" type="line"/>
      <point x="271" y="1019" type="line"/>
      <point x="271" y="1194" type="line" smooth="yes"/>
      <point x="271" y="1334"/>
      <point x="387" y="1475"/>
      <point x="505" y="1475" type="qcurve" smooth="yes"/>
      <point x="579" y="1475"/>
      <point x="714" y="1440"/>
      <point x="766" y="1417" type="qcurve"/>
      <point x="789" y="1496" type="line"/>
      <point x="726" y="1521"/>
      <point x="580" y="1556"/>
      <point x="505" y="1556" type="qcurve" smooth="yes"/>
      <point x="354" y="1556"/>
      <point x="183" y="1371"/>
      <point x="183" y="1194" type="qcurve" smooth="yes"/>
    </contour>
    <contour>
      <point x="5" y="973" type="line"/>
      <point x="546" y="973" type="line"/>
      <point x="546" y="1052" type="line"/>
      <point x="241" y="1052" type="line"/>
      <point x="220" y="1052" type="line"/>
      <point x="5" y="1052" type="line"/>
    </contour>
    <contour>
      <point x="737" y="0" type="line"/>
      <point x="826" y="0" type="line"/>
      <point x="826" y="1496" type="line"/>
      <point x="737" y="1496" type="line"/>
    </contour>
  </outline>
</glyph>
<glyph name="three.pnum" format="2">
  <advance width="1149"/>
  <outline>
    <contour>
      <point x="155" y="380" type="line" smooth="yes"/>
      <point x="155" y="200"/>
      <point x="379" y="-30"/>
      <point x="554" y="-30" type="qcurve" smooth="yes"/>
      <point x="730" y="-30"/>
      <point x="955" y="200"/>
      <point x="955" y="400" type="qcurve" smooth="yes"/>
      <point x="955" y="540"/>
      <point x="805" y="729"/>
      <point x="684" y="759" type="qcurve"/>
      <point x="684" y="763" type="line"/>
      <point x="800" y="815"/>
      <point x="901" y="993"/>
      <point x="901" y="1100" type="qcurve" smooth="yes"/>
      <point x="901" y="1270"/>
      <point x="710" y="1486"/>
      <point x="554" y="1486" type="qcurve" smooth="yes"/>
      <point x="399" y="1486"/>
      <point x="196" y="1267"/>
      <point x="196" y="1100" type="qcurve" smooth="yes"/>
      <point x="196" y="1090" type="line"/>
      <point x="285" y="1090" type="line"/>
      <point x="285" y="1100" type="line" smooth="yes"/>
      <point x="285" y="1244"/>
      <point x="438" y="1401"/>
      <point x="554" y="1401" type="qcurve" smooth="yes"/>
      <point x="671" y="1401"/>
      <point x="811" y="1244"/>
      <point x="811" y="1097" type="qcurve" smooth="yes"/>
      <point x="811" y="963"/>
      <point x="653" y="802"/>
      <point x="504" y="802" type="qcurve" smooth="yes"/>
      <point x="395" y="802" type="line"/>
      <point x="395" y="716" type="line"/>
      <point x="515" y="716" type="line" smooth="yes"/>
      <point x="667" y="716"/>
      <point x="863" y="554"/>
      <point x="863" y="400" type="qcurve" smooth="yes"/>
      <point x="863" y="226"/>
      <point x="695" y="55"/>
      <point x="554" y="55" type="qcurve" smooth="yes"/>
      <point x="413" y="55"/>
      <point x="243" y="226"/>
      <point x="243" y="380" type="qcurve" smooth="yes"/>
      <point x="243" y="390" type="line"/>
      <point x="155" y="390" type="line"/>
    </contour>
  </outline>
</glyph>
<glyph name="two.pnum" format="2">
  <advance width="1149"/>
  <outline>
    <contour>
      <point x="182" y="0" type="line"/>
      <point x="973" y="0" type="line"/>
      <point x="973" y="84" type="line"/>
      <point x="296" y="84" type="line"/>
      <point x="701" y="595" type="line" smooth="yes"/>
      <point x="806" y="726"/>
      <point x="943" y="952"/>
      <point x="943" y="1090" type="qcurve" smooth="yes"/>
      <point x="943" y="1250"/>
      <point x="747" y="1486"/>
      <point x="580" y="1486" type="qcurve" smooth="yes"/>
      <point x="409" y="1486"/>
      <point x="187" y="1228"/>
      <point x="187" y="1030" type="qcurve" smooth="yes"/>
      <point x="187" y="1020" type="line"/>
      <point x="276" y="1020" type="line"/>
      <point x="276" y="1030" type="line" smooth="yes"/>
      <point x="276" y="1202"/>
      <point x="449" y="1401"/>
      <point x="580" y="1401" type="qcurve" smooth="yes"/>
      <point x="708" y="1401"/>
      <point x="853" y="1214"/>
      <point x="853" y="1080" type="qcurve" smooth="yes"/>
      <point x="853" y="973"/>
      <point x="734" y="774"/>
      <point x="642" y="655" type="qcurve" smooth="yes"/>
      <point x="182" y="79" type="line"/>
    </contour>
  </outline>
</glyph>
